<mxfile host="drawio-plugin" modified="2024-04-03T07:54:20.087Z" agent="5.0 (X11; Linux x86_64) AppleWebKit/537.36 (KHTML, like Gecko) Chrome/111.0.0.0 Safari/537.36" etag="hx84Xy290QX-xibZ5RAq" version="20.5.3" type="embed"><diagram id="23iRSUPoRavnBvh4doch" name="Page-1"><mxGraphModel dx="1525" dy="742" grid="1" gridSize="10" guides="1" tooltips="1" connect="1" arrows="1" fold="1" page="0" pageScale="1" pageWidth="827" pageHeight="1169" math="0" shadow="0"><root><mxCell id="0"/><mxCell id="1" parent="0"/><mxCell id="2" value="Book" style="swimlane;fontStyle=1;align=center;verticalAlign=top;childLayout=stackLayout;horizontal=1;startSize=26;horizontalStack=0;resizeParent=1;resizeParentMax=0;resizeLast=0;collapsible=1;marginBottom=0;" parent="1" vertex="1"><mxGeometry x="110" y="280" width="160" height="114" as="geometry"/></mxCell><mxCell id="3" value="- ID: int&#10;- name: String&#10;- author: String" style="text;strokeColor=none;fillColor=none;align=left;verticalAlign=top;spacingLeft=4;spacingRight=4;overflow=hidden;rotatable=0;points=[[0,0.5],[1,0.5]];portConstraint=eastwest;" parent="2" vertex="1"><mxGeometry y="26" width="160" height="54" as="geometry"/></mxCell><mxCell id="4" value="" style="line;strokeWidth=1;fillColor=none;align=left;verticalAlign=middle;spacingTop=-1;spacingLeft=3;spacingRight=3;rotatable=0;labelPosition=right;points=[];portConstraint=eastwest;strokeColor=inherit;" parent="2" vertex="1"><mxGeometry y="80" width="160" height="8" as="geometry"/></mxCell><mxCell id="5" value="+ getter, setter" style="text;strokeColor=none;fillColor=none;align=left;verticalAlign=top;spacingLeft=4;spacingRight=4;overflow=hidden;rotatable=0;points=[[0,0.5],[1,0.5]];portConstraint=eastwest;" parent="2" vertex="1"><mxGeometry y="88" width="160" height="26" as="geometry"/></mxCell><mxCell id="6" value="BookView" style="swimlane;fontStyle=1;align=center;verticalAlign=top;childLayout=stackLayout;horizontal=1;startSize=26;horizontalStack=0;resizeParent=1;resizeParentMax=0;resizeLast=0;collapsible=1;marginBottom=0;" parent="1" vertex="1"><mxGeometry x="510" y="280" width="160" height="74" as="geometry"/></mxCell><mxCell id="8" value="" style="line;strokeWidth=1;fillColor=none;align=left;verticalAlign=middle;spacingTop=-1;spacingLeft=3;spacingRight=3;rotatable=0;labelPosition=right;points=[];portConstraint=eastwest;strokeColor=inherit;" parent="6" vertex="1"><mxGeometry y="26" width="160" height="8" as="geometry"/></mxCell><mxCell id="9" value="+ printBook(Book): void" style="text;strokeColor=none;fillColor=none;align=left;verticalAlign=top;spacingLeft=4;spacingRight=4;overflow=hidden;rotatable=0;points=[[0,0.5],[1,0.5]];portConstraint=eastwest;" parent="6" vertex="1"><mxGeometry y="34" width="160" height="40" as="geometry"/></mxCell><mxCell id="10" value="BookController" style="swimlane;fontStyle=1;align=center;verticalAlign=top;childLayout=stackLayout;horizontal=1;startSize=26;horizontalStack=0;resizeParent=1;resizeParentMax=0;resizeLast=0;collapsible=1;marginBottom=0;" parent="1" vertex="1"><mxGeometry x="310" y="460" width="160" height="138" as="geometry"/></mxCell><mxCell id="11" value="- book: Book&#10;- view: BookView" style="text;strokeColor=none;fillColor=none;align=left;verticalAlign=top;spacingLeft=4;spacingRight=4;overflow=hidden;rotatable=0;points=[[0,0.5],[1,0.5]];portConstraint=eastwest;" parent="10" vertex="1"><mxGeometry y="26" width="160" height="44" as="geometry"/></mxCell><mxCell id="12" value="" style="line;strokeWidth=1;fillColor=none;align=left;verticalAlign=middle;spacingTop=-1;spacingLeft=3;spacingRight=3;rotatable=0;labelPosition=right;points=[];portConstraint=eastwest;strokeColor=inherit;" parent="10" vertex="1"><mxGeometry y="70" width="160" height="8" as="geometry"/></mxCell><mxCell id="13" value="+ updateView(Book): void&#10;+ setName(String): void&#10;+ setAuthor(String): void" style="text;strokeColor=none;fillColor=none;align=left;verticalAlign=top;spacingLeft=4;spacingRight=4;overflow=hidden;rotatable=0;points=[[0,0.5],[1,0.5]];portConstraint=eastwest;" parent="10" vertex="1"><mxGeometry y="78" width="160" height="60" as="geometry"/></mxCell><mxCell id="14" value="model" style="text;html=1;align=center;verticalAlign=middle;resizable=0;points=[];autosize=1;strokeColor=none;fillColor=none;" parent="1" vertex="1"><mxGeometry x="120" y="225" width="60" height="30" as="geometry"/></mxCell><mxCell id="15" value="view" style="text;html=1;align=center;verticalAlign=middle;resizable=0;points=[];autosize=1;strokeColor=none;fillColor=none;" parent="1" vertex="1"><mxGeometry x="535" y="235" width="50" height="30" as="geometry"/></mxCell><mxCell id="16" value="controller" style="text;html=1;align=center;verticalAlign=middle;resizable=0;points=[];autosize=1;strokeColor=none;fillColor=none;" parent="1" vertex="1"><mxGeometry x="345" y="415" width="70" height="30" as="geometry"/></mxCell><mxCell id="20" value="Use" style="endArrow=open;endSize=12;dashed=1;html=1;rounded=0;entryX=0.519;entryY=1.192;entryDx=0;entryDy=0;entryPerimeter=0;exitX=-0.006;exitY=0.773;exitDx=0;exitDy=0;exitPerimeter=0;" parent="1" source="11" target="5" edge="1"><mxGeometry width="160" relative="1" as="geometry"><mxPoint x="130" y="540" as="sourcePoint"/><mxPoint x="290" y="540" as="targetPoint"/></mxGeometry></mxCell><mxCell id="22" value="Use" style="endArrow=open;endSize=12;dashed=1;html=1;rounded=0;entryX=0.55;entryY=1.125;entryDx=0;entryDy=0;entryPerimeter=0;exitX=1.006;exitY=1;exitDx=0;exitDy=0;exitPerimeter=0;" parent="1" source="11" target="9" edge="1"><mxGeometry width="160" relative="1" as="geometry"><mxPoint x="440" y="430" as="sourcePoint"/><mxPoint x="600" y="430" as="targetPoint"/></mxGeometry></mxCell></root></mxGraphModel></diagram></mxfile>